<svg id="Layer_1" data-name="Layer 1" xmlns="http://www.w3.org/2000/svg" viewBox="0 0 1200 1200"><title>animation</title><path d="M769.1,603.37c-4.23,3.28-13.68.18-18,3.61s-2.67,12.71-6,17-12.84,5.49-14.22,11.1c-.37,1.28,7,4.66,6.6,5.92s-8.41.22-8.8,1.48,6.82,5,6.41,6.22c-1.15,3.43-9.9,4-11.28,7.34s4.36,10,2.74,13.18-10.37,2.55-12.22,5.64c-.62,1,5.57,6.23,4.94,7.24s-8-2.34-8.66-1.35,5,6.83,4.32,7.81c-3.81,4.17-12.2,6.13-12.41,11.08s8.7,9.64,9.58,14.58c1,5.54-6,10.55-7,14.87-3.08,13.08-9.38,21.76-22.66,22.19C672,751.6,660,741.9,648,741c-12.45-.9-23.38,6.79-33,11-.89.19-4.49-7.08-5.3-6.82s1.14,8.06.36,8.4-5.2-6.38-6-6c-3.57,2-1.25,10.77-3.71,13.91s-11.08,2-13.17,5.46,2.21,11.6-.29,14.65c-1.56,1.57-6.86-4.26-8.67-4s-4.75,7.62-6.59,6.94.38-8.46-1-9.51c-7.21-6.89-19.73-7.78-26.89-14.34-7.32-6.7-9.47-19.24-17.08-25.38s-20.24-5.57-28.53-10.94c-1-.76,2.59-8,1.58-8.82s-7,4.69-8,3.88,3.16-7.77,2.19-8.6c-4.47-3.83-14.24-2.17-18.23-6.49s-1.53-13.93-5-18.69-13.34-5.39-16.22-10.53c-.58-1,5.88-5.9,5.32-6.95s-8.2,1.56-8.73.5,6.28-5.3,5.78-6.37c-3.09-8.66-14.72-11-20.8-16.86s-7.91-16.86-14.84-22.19c-6.7-5.14-18.86-4.94-24.4-11.78-1-1.27,5.71-5.27,5.64-6.51s-7.21-4.37-6.54-5.62,7.86,2.45,8.85,1.46c4.29-4.29,4.63-13.79,9.88-16.8s15.16.72,19.84-2.88,2.49-12.57,4.91-18.64c.37-1.27,8.31,0,8.68-1.24s-6.91-4.84-6.52-6.1,8.41-.07,8.82-1.32c.71-2.12-6.07-6.91-5.27-9s9-1.12,9.93-3.16-5.43-7.43-4.45-9.43c.5-1,8.14,1.6,8.66.6s-6.05-5.7-5.52-6.69,7.94,2.13,8.48,1.14c5.36-8,.88-19.7,2.63-28.68s10.36-17,11.55-26.23-4.78-20.34-1.13-29c.34-.67,6.79,3.68,7.46,3.24s-2-7.92-1.21-8.14,2,7.42,2.72,7.42c6.55,1.31,15.1-3.54,21.09-.68s9.2,13.42,15.38,15.34,12.82-5,19.78-6.81c1.25-.42,4.71,6.87,6,6.49s.3-8.43,1.57-8.78,4.27,7.12,5.55,6.8c9-1.46,14.19-12.35,21.59-16.9s18.83-3.57,25.77-9.08,9.49-17.53,17.11-21.84c1-.34,3.24,7.11,4.36,7.34s4.83-6.8,5.8-6.28-3.17,7.15-2.48,7.84c3.84,5.43,13.31,7.71,15.53,13.73,2.33,6.3-2.95,15.83,0,21.36,3,5.73,12.4,5.28,18.63,8.61,1.13.64-1.64,8.27-.53,8.91s6.27-5.62,7.38-5-1.93,8.16-.84,8.84c7.1,4.41,18.56,3,24.81,8.49s6.3,17.06,11.57,23.52S718.83,516.72,723,524c.6,1-5.82,6-5.26,7s8.22-1.59,8.76-.51-6.12,5.65-5.6,6.73c3.48,7.43,14.74,8.62,20.39,13.74s7.16,15.82,13.5,20.38,17.87,3.29,23.21,9c1,1.28-5.55,5.53-5.49,6.9s7.27,4.52,6.62,5.83-7.94-2.21-9-1.31c-.57.67,4.29,7.14,3.6,7.8s-6.66-4.73-7.4-4.12S769.86,602.8,769.1,603.37Z"/></svg>