<svg xmlns="http://www.w3.org/2000/svg" viewBox="0 0 361.83 117.06">
    <defs>
        <style>.cls-1{font-size:45px;font-family:adelia;}.cls-1,.cls-2{fill:#fff;}</style>
    </defs>
    <title>white-logo</title>
    <g id="Layer_2" data-name="Layer 2">
        <g id="Layer_1-2" data-name="Layer 1">
            <text class="cls-1" transform="translate(0 55.89)">Varun Borar</text>
            <path class="cls-2" d="M8.46,107.16H4.94v-.75h7.89v.75H9.29v9.75H8.46Z" />
            <path class="cls-2" d="M32.39,106.41h.81V111h6.3v-4.58h.81v10.5H39.5v-5.17H33.2v5.17h-.81Z" />
            <path class="cls-2" d="M67.56,111.75H62.21v4.41h5.86l-.12.75H61.4v-10.5h6.43v.75H62.21V111h5.35Z" />
            <path class="cls-2" d="M110,106.41h3.66c2,0,3.09,1.07,3.09,2.58a2.27,2.27,0,0,1-1.62,2.3,2.65,2.65,0,0,1,2,2.59c0,2.1-1.58,3-3.41,3H110Zm3.39,4.52c1.82,0,2.51-.68,2.51-1.89,0-1-.72-1.88-2.19-1.88h-2.91v3.77Zm-2.59,5.23h3c1.38,0,2.54-.69,2.54-2.23,0-1.34-.86-2.25-3-2.25h-2.52Z" />
            <path class="cls-2" d="M138.38,106.41v10.5h-.81v-10.5Z" />
            <path class="cls-2" d="M167.42,116.91h-.68a7.7,7.7,0,0,1-.1-1.68,3.42,3.42,0,0,1-3.39,1.8c-3,0-4.56-2.29-4.56-5.28s1.65-5.49,4.72-5.49c2.27,0,3.77,1.19,4.1,3.12h-.81a3.14,3.14,0,0,0-3.32-2.37c-2.62,0-3.82,2-3.82,4.7,0,2.4,1.15,4.57,3.72,4.57s3.36-1.71,3.36-4v-.12h-3.39v-.75h4.17Z" />
            <path class="cls-2" d="M210,114.09a2.69,2.69,0,0,0,3,2.22c1.92,0,2.65-1,2.65-2.1s-.52-1.92-2.83-2.49-3.18-1.27-3.18-2.79,1-2.67,3.25-2.67,3.29,1.41,3.42,2.69h-.84a2.34,2.34,0,0,0-2.62-1.94c-1.52,0-2.34.71-2.34,1.88s.69,1.6,2.62,2.08c3,.74,3.39,1.92,3.39,3.18,0,1.55-1.12,2.88-3.55,2.88-2.63,0-3.59-1.53-3.78-2.94Z" />
            <path class="cls-2" d="M238.86,107.16h-3.52v-.75h7.89v.75h-3.54v9.75h-.83Z" />
            <path class="cls-2" d="M263.75,106.41v6.36c0,2.79,1.57,3.51,3.06,3.51,1.75,0,3.06-.73,3.06-3.51v-6.36h.82v6.32c0,3.28-1.74,4.3-3.91,4.3s-3.87-1.12-3.87-4.17v-6.45Z" />
            <path class="cls-2" d="M291.63,106.41h3.48c2.88,0,4.88,2,4.88,5.16s-1.95,5.34-4.89,5.34h-3.47Zm.81,9.75H295c2.77,0,4.14-2,4.14-4.54,0-2.31-1.23-4.46-4.14-4.46h-2.54Z" />
            <path class="cls-2" d="M321.11,106.41v10.5h-.81v-10.5Z" />
            <path class="cls-2" d="M350.87,111.59c0,2.86-1.53,5.47-4.77,5.47-3,0-4.68-2.38-4.68-5.4s1.66-5.4,4.78-5.4C349.08,106.26,350.87,108.53,350.87,111.59Zm-8.58,0c0,2.41,1.33,4.69,3.85,4.69,2.72,0,3.86-2.22,3.86-4.71s-1.29-4.59-3.83-4.59C343.47,107,342.29,109.25,342.29,111.62Z" />
        </g>
    </g>
</svg>